<?xml version="1.0" encoding="UTF-8"?>
<svg id="Layer_1" xmlns="http://www.w3.org/2000/svg" version="1.1" viewBox="0 0 512 512">
  <!-- Generator: Adobe Illustrator 29.8.2, SVG Export Plug-In . SVG Version: 2.1.1 Build 3)  -->
  <defs>
    <style>
      .st0 {
        fill: #384bff;
      }
    </style>
  </defs>
  <path class="st0" d="M207.6,58.3h38.3c4.2,0,7.5-3.4,7.5-7.5s-3.4-7.5-7.5-7.5h-38.3c-4.2,0-7.5,3.4-7.5,7.5s3.4,7.5,7.5,7.5Z"/>
  <path class="st0" d="M173.5,463.7h68.3c4.2,0,7.5-3.4,7.5-7.5s-3.4-7.5-7.5-7.5h-68.3c-4.2,0-7.5,3.4-7.5,7.5s3.4,7.5,7.5,7.5h0Z"/>
  <path class="st0" d="M76.5,388.8c4.2,0,7.5-3.4,7.5-7.5V86.6h247.3v38.7c0,4.2,3.4,7.5,7.5,7.5s7.5-3.4,7.5-7.5c0-9.1,0,27.8,0-80.3,0-16.5-13.5-30-30-30H98.9c-15.7,0-30,12.9-30,30v336.2c0,4.2,3.4,7.5,7.5,7.5ZM316.4,30.1c8,0,14.9,6.5,14.9,14.9v26.5H84v-26.5c0-8.2,6.7-14.9,14.9-14.9h217.4Z"/>
  <path class="st0" d="M254.1,204.8c2.9,2.9,7.7,2.9,10.6,0l31.5-31.8c2.9-2.9,2.9-7.7,0-10.6l-31.5-31.8c-2.9-3-7.7-3-10.6,0-3,2.9-3,7.7,0,10.6l26.2,26.5-26.2,26.5c-2.9,3-2.9,7.7,0,10.6h0Z"/>
  <path class="st0" d="M161.2,130.6c-3-2.9-7.7-2.9-10.6,0l-31.5,31.8c-2.9,2.9-2.9,7.7,0,10.6l31.5,31.8c2.9,3,7.7,3,10.6,0,3-2.9,3-7.7,0-10.6l-26.2-26.5,26.2-26.5c2.9-3,2.9-7.7,0-10.6h0Z"/>
  <path class="st0" d="M219.8,109.3l-44.2,111.2c-1.5,3.9.4,8.2,4.2,9.8,3.8,1.5,8.2-.3,9.8-4.2l44.2-111.2c1.5-3.9-.4-8.2-4.2-9.8-3.9-1.6-8.2.4-9.8,4.2h0Z"/>
  <path class="st0" d="M338.9,248.8c-22.1,0-40,17.9-40,40s18.2,40,40,40,39.9-17.7,39.9-40-17.9-40-39.9-40ZM346.4,312.5v-28.7c0-4.1-3.4-7.5-7.5-7.5s-7.5,3.4-7.5,7.5v28.8c-10.1-3.2-17.4-12.6-17.4-23.8s11.1-24.9,24.9-24.9,24.8,11.2,24.8,24.9-7.3,20.6-17.3,23.7Z"/>
  <path class="st0" d="M436.4,265l-18.5-2.1c-1.4-4.4-3.2-8.7-5.4-12.8l10.8-15.4c2.2-2.9,1.8-7.1-.8-9.6l-21.6-21.5c-2.7-2.7-7-3-10-.6l-14.5,11.7c-4.1-2.1-8.4-3.8-12.9-5.2l-3.1-18.6c-.6-3.6-3.8-6.2-7.5-6.2h-30.5c-3.8,0-7.1,2.9-7.5,6.7l-2,18.6c-4.4,1.4-8.7,3.2-12.7,5.3l-15.4-10.9c-3-2.1-7.1-1.8-9.6.8l-21.5,21.5c-2.7,2.7-2.9,7-.5,10l11.6,14.6c-2.1,4.1-3.8,8.4-5.2,12.9l-18.5,3.1c-3.6.7-6.3,3.8-6.3,7.5v30.5c0,3.8,2.9,7,6.7,7.5l18.5,2.1c1.4,4.4,3.3,8.7,5.4,12.8l-10.8,15.3c-2.1,3-1.8,7.1.8,9.7l21.5,21.5c2.7,2.7,7,2.9,10,.5l14.6-11.6c4.1,2,8.4,3.8,12.8,5.1l3.1,18.6c.6,3.7,3.8,6.3,7.5,6.3h6.6v16.6H76.5c-4.1,0-7.5,3.4-7.5,7.5s0,51.7,0,49.8c0,16.5,13.5,30,30,30h217.4c16.6,0,30-13.5,30-30s0-77.6,0-73.9h8.8c3.8,0,7.1-2.9,7.5-6.7l2.1-18.6c4.4-1.4,8.7-3.2,12.7-5.3l15.4,10.9c3,2.1,7.1,1.7,9.7-.8l21.5-21.6c2.7-2.7,2.9-7,.5-9.9l-11.6-14.6c2.1-4.2,3.8-8.5,5.2-12.9l18.5-3.2c3.6-.6,6.3-3.8,6.3-7.4v-30.5c0-3.8-2.9-7.1-6.7-7.5h0ZM331.3,467c0,8.2-6.7,14.9-15,14.9H98.9c-8.2,0-14.9-6.7-14.9-14.9s0-43,0-42.2h247.3v42.2h0ZM428,296.5l-17,2.9c-3,.5-5.3,2.7-6.1,5.7-1.5,6.3-4,12.4-7.3,18.2-1.6,2.6-1.4,6,.6,8.4l10.5,13.3-12.2,12.3-14.2-10.1c-2.4-1.7-5.7-1.8-8.3-.2-5.5,3.4-11.5,5.9-17.9,7.5-3.1.8-5.3,3.4-5.7,6.5l-1.9,16.9h-17.5l-2.9-17.1c-.5-2.9-2.7-5.3-5.6-6-6.3-1.6-12.4-4.1-18.1-7.4-2.7-1.6-6.1-1.4-8.5.6l-13.3,10.5-12.3-12.3,9.9-13.9c1.6-2.3,1.9-5.6.3-8.4-3.4-5.5-6-11.6-7.7-18.1-.8-3-3.3-5.3-6.4-5.6l-16.9-2v-17.3l17-2.9c3-.5,5.4-2.8,6.1-5.7,1.5-6.4,4-12.5,7.4-18.1,1.6-2.7,1.4-6.1-.5-8.6l-10.6-13.3,12.3-12.3,14.1,10c2.4,1.7,5.7,1.9,8.3.3,5.5-3.4,11.6-5.9,18.1-7.6,3-.8,5.2-3.3,5.6-6.4l1.9-16.9h17.5l2.9,17c.5,3,2.7,5.4,5.6,6.1,6.4,1.5,12.5,4,18.1,7.4,2.7,1.6,6.1,1.4,8.5-.6l13.3-10.6,12.3,12.3-9.9,14c-1.6,2.2-1.9,5.5-.3,8.4,3.5,5.6,6,11.7,7.6,18,.8,3,3.3,5.3,6.5,5.6l16.9,1.9v17.4h0Z"/>
</svg>