<?xml version="1.0" encoding="UTF-8"?>
<svg id="Capa_1" xmlns="http://www.w3.org/2000/svg" version="1.1" viewBox="0 0 512 512">
  <!-- Generator: Adobe Illustrator 29.8.2, SVG Export Plug-In . SVG Version: 2.1.1 Build 3)  -->
  <defs>
    <style>
      .st0 {
        fill: #384bff;
      }
    </style>
  </defs>
  <path class="st0" d="M447.5,64.5C405.9,22.9,350.6,0,291.8,0s-114.1,22.9-155.7,64.5c-3,3-6,6.2-8.9,9.4-2.8,3.1-2.5,7.8.6,10.6,3.1,2.8,7.9,2.5,10.6-.6,2.7-3,5.4-5.9,8.3-8.8,38.7-38.7,90.3-60.1,145.1-60.1s106.3,21.3,145.1,60.1c80,80,80,210.1,0,290.1-38.7,38.7-90.3,60.1-145.1,60.1s-106.3-21.3-145.1-60.1c-33.7-33.7-54.7-78.3-59.2-125.7-4.4-46.7,7.4-93.9,33.2-132.7,2.3-3.5,1.4-8.1-2.1-10.4-3.5-2.3-8.1-1.4-10.4,2.1-27.7,41.7-40.4,92.3-35.6,142.5,3.7,38.8,17.7,75.9,40.2,107.4l-22.1,22.1c-2.9-2.9-7.7-2.9-10.6,0L12.7,437.8c-16.9,16.9-16.9,44.5,0,61.5,8.5,8.5,19.6,12.7,30.7,12.7s22.3-4.2,30.7-12.7l19-19c2.9-2.9,2.9-7.7,0-10.6s-7.7-2.9-10.6,0l-19,19c-5.4,5.4-12.5,8.3-20.1,8.3s-14.7-3-20.1-8.3-8.3-12.5-8.3-20.1,3-14.7,8.3-20.1l62.1-62.1,40.2,40.2-21.8,21.8c-2.9,2.9-2.9,7.7,0,10.6s7.7,2.9,10.6,0l27.1-27.1c2.9-2.9,2.9-7.7,0-10.6l22-22c37.1,26.7,81.6,41.1,128.2,41.1s114.1-22.9,155.7-64.5,64.5-96.9,64.5-155.7-22.9-114.1-64.5-155.7h0ZM130.9,410.6l-29.6-29.6,20.7-20.7c4.4,5.4,9.1,10.6,14.1,15.5,5,5,10.1,9.7,15.5,14.1l-20.7,20.7Z"/>
  <path class="st0" d="M368.7,380.4c18.1-8.7,34.5-20.3,48.7-34.6,69.3-69.3,69.3-182,0-251.2-69.3-69.3-182-69.3-251.2,0-69.3,69.3-69.3,182,0,251.2,33.7,33.7,79.3,52,125.8,52,15.8,0,31.7-2.1,47.3-6.4,4-1.1,6.3-5.2,5.2-9.2-1.1-4-5.2-6.3-9.2-5.2-56.4,15.6-117.1-.4-158.5-41.7-63.4-63.4-63.4-166.6,0-230,63.4-63.4,166.6-63.4,230,0,63.4,63.4,63.4,166.6,0,230-13.1,13.1-28.1,23.7-44.6,31.7-3.7,1.8-5.3,6.3-3.5,10,1.8,3.7,6.3,5.3,10,3.5h0Z"/>
  <path class="st0" d="M300.9,185.9c4.2,0,7.5-3.4,7.5-7.5s-3.4-7.5-7.5-7.5h-35.2c-4.2,0-7.5,3.4-7.5,7.5v83.5c0,4.1,3.4,7.5,7.5,7.5h35.2c4.2,0,7.5-3.4,7.5-7.5s-3.4-7.5-7.5-7.5h-27.7v-26.7h25.1c4.2,0,7.5-3.4,7.5-7.5s-3.4-7.5-7.5-7.5h-25.1v-26.7h27.7Z"/>
  <path class="st0" d="M211.8,254.8c-9.2,0-18.1-3.7-23.8-10-2.8-3.1-7.5-3.3-10.6-.5-3.1,2.8-3.3,7.5-.5,10.6,8.5,9.4,21.6,15,34.9,15s30-10.5,32.5-24.5c2.9-16.1-9.8-26.9-22.6-31.6-10.8-4-20.9-8.4-23.4-9.5-2.7-2-4-5.1-3.5-8.5.6-4.3,3.9-7.7,8.8-9.2,13.5-4.1,25.8,5.7,26,5.9,3.2,2.6,7.9,2.2,10.6-.9,2.7-3.2,2.3-7.9-.9-10.6-.7-.6-18.5-15.3-40-8.8-10.5,3.2-17.9,11.4-19.4,21.5-1.3,9.4,2.7,18.4,10.6,23.6.3.2.7.4,1,.6.5.2,12,5.3,25,10.1,9.3,3.4,14,8.8,13,14.8-1,5.9-7.6,12.1-17.7,12.1h0Z"/>
  <path class="st0" d="M415.1,220.2c0-27.4-22.3-49.7-49.7-49.7s-49.7,22.3-49.7,49.7,22.3,49.7,49.7,49.7c27.4,0,49.7-22.3,49.7-49.7ZM330.8,220.2c0-19.1,15.5-34.6,34.6-34.6s34.6,15.5,34.6,34.6-15.5,34.6-34.6,34.6-34.6-15.5-34.6-34.6Z"/>
</svg>