<?xml version="1.0" encoding="UTF-8"?>
<svg id="Layer_1" xmlns="http://www.w3.org/2000/svg" version="1.1" viewBox="0 0 512 512">
  <!-- Generator: Adobe Illustrator 29.8.2, SVG Export Plug-In . SVG Version: 2.1.1 Build 3)  -->
  <defs>
    <style>
      .st0 {
        fill: #384bff;
      }
    </style>
  </defs>
  <path class="st0" d="M125.2,255.2v-73.8c0-35.6,28.9-64.5,64.5-64.5h169.6c3.3,0,6,2.7,6,6s-2.7,6-6,6h-169.6c-29,0-52.5,23.6-52.5,52.5v73.8c0,3.3-2.7,6-6,6s-6-2.7-6-6h0ZM471.3,137.3c-2.4,2.2-2.6,6.1-.3,8.5,9,9.8,14,22.4,14,35.6v110.5c0,29-23.6,52.5-52.5,52.5s-3,.6-4,1.6l-41.7,38.2v-33.8c0-3.3-2.7-6-6-6h-30.2c-3.3,0-6,2.7-6,6s2.7,6,6,6h24.2v41.5c0,2.4,1.4,4.5,3.6,5.5.8.3,1.6.5,2.4.5,1.5,0,2.9-.5,4-1.6l50.1-45.9c34.5-1.3,62.2-29.7,62.2-64.5v-110.5c0-16.3-6.1-31.8-17.2-43.8-2.3-2.4-6-2.6-8.5-.3h0ZM338.2,347.2v.6c0,12.5-10.2,22.7-22.7,22.7h-17.1l7.4,15.8c2.5,5.2,3.6,10.4,3.6,16.2v77c0,9.6-7.8,17.4-17.4,17.4h-14.6c-9.6,0-17.4-7.8-17.4-17.4v-10H93.3v10c0,9.6-7.8,17.4-17.4,17.4h-14.6c-9.6,0-17.4-7.8-17.4-17.4v-77c0-5.8,1.2-10.9,3.6-16.2l7.4-15.8h-17.1c-12.5,0-22.7-10.2-22.7-22.7v-.6c0-5.8,4.7-10.6,10.6-10.6h24.3c5.8,0,10.6,4.7,10.6,10.6v7.7l12.7-39c5.8-17.9,21.7-29.4,40.5-29.4h16.5l11.6-24.9c1-2.1,3.1-3.5,5.4-3.5h58.7c2.3,0,4.4,1.4,5.4,3.5l11.6,24.9h16.5c18.8,0,34.7,11.5,40.5,29.4l12.7,39v-7.7c0-5.8,4.7-10.6,10.6-10.6h24.3c5.9,0,10.6,4.7,10.6,10.6h0ZM48.5,348.6h-21.4c.4,5.5,5.1,9.9,10.7,9.9h10.7v-9.9ZM143.4,286.5h66.3l-7.6-16.3h-51.1l-7.6,16.3ZM69.6,365.5c16.8,5.8,44.9,5.9,76.8,5.9,9.7,0,19.8,0,30.1.2,10.4-.2,20.4-.2,30.1-.2,32,0,60,0,76.8-5.9l-14.9-45.9c-4.2-12.8-15.6-21.1-29.1-21.1h-125.9c-13.5,0-24.9,8.3-29.1,21.1l-14.9,45.9ZM81.3,469.5h-21.5c-1.4,0-2.7-.2-4-.5v10.5c0,3,2.4,5.4,5.4,5.4h14.6c3,0,5.4-2.4,5.4-5.4v-10ZM205.5,447c0-5.8-4.7-10.5-10.5-10.5h-36.8c-5.8,0-10.5,4.7-10.5,10.5v10.5h57.8v-10.5h0ZM297.4,479.6v-10.5c-1.3.3-2.6.5-4,.5h-21.5v10c0,3,2.4,5.4,5.4,5.4h14.6c3,0,5.4-2.4,5.4-5.4h0ZM297.4,453.5v-51c0-4.1-.7-7.4-2.5-11.1l-7-14.8c-18.9,6.7-48,6.7-81.2,6.8-9.7,0-19.7,0-30,.2h-.2c-10.3-.2-20.3-.2-30-.2-33.2,0-62.3,0-81.2-6.8l-7,14.8c-1.7,3.7-2.5,7-2.5,11.1v51c0,2.2,1.8,4,4,4h75.9v-10.5c0-12.4,10.1-22.5,22.5-22.5h36.8c12.4,0,22.5,10.1,22.5,22.5v10.5h75.9c2.2,0,4-1.8,4-4h0ZM326.1,348.6h-21.4v9.9h10.7c5.6,0,10.3-4.4,10.7-9.9h0ZM293,403.2v6.4c0,11.5-9.4,20.9-20.9,20.9h-30c-3.3,0-6-2.7-6-6v-6.4c0-11.5,9.4-20.9,20.9-20.9h30c3.3,0,6,2.7,6,6ZM281,409.2h-24c-4.9,0-8.9,4-8.9,8.9v.4h24c4.9,0,8.9-4,8.9-8.9v-.4ZM117.1,418.1v6.4c0,3.3-2.7,6-6,6h-30c-11.5,0-20.9-9.4-20.9-20.9v-6.4c0-3.3,2.7-6,6-6h30c11.6,0,20.9,9.4,20.9,20.9ZM105.1,418.1c0-4.9-4-8.9-8.9-8.9h-24v.4c0,4.9,4,8.9,8.9,8.9h24v-.4ZM311.1,161.7c-21.9,0-39.8,17.8-39.8,39.8s2.7,6,6,6,6-2.7,6-6c0-15.3,12.5-27.8,27.8-27.8s27.8,12.5,27.8,27.8-6.6,21.2-16.9,25.6c-10.4,4.5-16.9,14.3-16.9,25.6v32.4c0,3.3,2.7,6,6,6s6-2.7,6-6v-32.4c0-6.6,3.6-12,9.6-14.6,14.7-6.3,24.1-20.6,24.1-36.6,0-21.9-17.8-39.8-39.8-39.8h0ZM317.1,305.6v-.2c0-3.3-2.7-6-6-6s-6,2.7-6,6v.2c0,3.3,2.7,6,6,6s6-2.7,6-6ZM352.7,150.6l21.6-27.8c2.3-3,5.6-5,9.3-5.8.2,0,.4,0,.6,0,.3,0,.6-.1.9-.2,1.8-.2,3.5-.1,5.2.2.2,0,.4,0,.6.1,2.2.5,4.3,1.5,6.2,2.9l10.8,8.4c6.5-2.9,18.1-16.6,22.2-21.5,3.8-5.2,14.3-19.7,15.4-26.8l-10.8-8.4c-3.4-2.7-5.6-6.5-6.1-10.8s.6-8.5,3.3-11.9l21.6-27.8c2.6-3.4,6.5-5.6,10.8-6.1,4.3-.5,8.5.6,11.9,3.3l6.5,5.1c24.3,18.9,16.8,67.8-17,111.2-15.7,20.2-34.8,36-53.7,44.4-9.8,4.4-19,6.6-27.4,6.6s-16.5-2.4-22.7-7.3l-6.5-5.1c-7-5.5-8.3-15.7-2.8-22.7ZM362.9,163.9l6.5,5.1c8.5,6.6,21.9,6.3,37.8-.8,17.1-7.7,34.5-22.2,49.1-40.8,28.7-36.9,37.5-80.1,19.1-94.4l-6.5-5.1c-.9-.7-2-1-3.1-.8s-2.1.7-2.8,1.6l-21.6,27.8c-.7.9-1,2-.8,3.1s.7,2.1,1.6,2.8l11.6,9c2.6,2.1,4.1,5.2,3.9,8.5-.4,7.3-5.6,17.2-17.9,34.3,0,.1-.2.2-.3.3-13.5,16.2-21.9,23.7-28.9,25.8-3.2,1-6.6.4-9.2-1.7l-11.6-9c-.4-.3-.8-.5-1.2-.6h-2.8c-.8.3-1.4.7-1.9,1.4l-21.6,27.8c-1.4,1.8-1.1,4.4.7,5.9h0Z"/>
</svg>